<?xml version="1.0" encoding="utf-8"?>
<!-- Generator: Adobe Illustrator 24.3.0, SVG Export Plug-In . SVG Version: 6.00 Build 0)  -->
<svg version="1.1" id="Layer_1" xmlns="http://www.w3.org/2000/svg" xmlns:xlink="http://www.w3.org/1999/xlink" x="0px" y="0px"
	 viewBox="0 0 12 12" style="enable-background:new 0 0 12 12;" xml:space="preserve">
<style type="text/css">
	.st0{fill-rule:evenodd;clip-rule:evenodd;}
</style>
<path class="st0" d="M0.9,6c0,2.8,2.3,5.1,5.1,5.1s5.1-2.3,5.1-5.1c0-2.8-2.3-5.1-5.1-5.1c-0.2,0-0.4-0.2-0.4-0.4S5.8,0,6,0
	c3.3,0,6,2.7,6,6c0,3.3-2.7,6-6,6c-3.3,0-6-2.7-6-6c0-1.2,0.4-2.4,1.1-3.4L0.6,2.1C0.4,2,0.4,1.7,0.5,1.5c0.1-0.1,0.1-0.1,0.2-0.1
	l1.9-0.5c0.2-0.1,0.5,0.1,0.5,0.3c0,0.1,0,0.1,0,0.2L2.9,3.3c0,0.2-0.2,0.4-0.5,0.4c-0.1,0-0.2,0-0.2-0.1L1.7,3.1C1.2,4,0.9,5,0.9,6
	L0.9,6z"/>
</svg>
